<mxfile host="app.diagrams.net" modified="2023-11-09T02:50:55.577Z" agent="Mozilla/5.0 (Windows NT 10.0; Win64; x64) AppleWebKit/537.36 (KHTML, like Gecko) Chrome/119.0.0.0 Safari/537.36" etag="_3c7pOSdnshztHP95lTg" version="22.0.8" type="github">
  <diagram name="Page-1" id="cS3aD5trCVznsl2AhYuz">
    <mxGraphModel dx="848" dy="511" grid="1" gridSize="10" guides="1" tooltips="1" connect="1" arrows="1" fold="1" page="1" pageScale="1" pageWidth="2339" pageHeight="3300" math="0" shadow="0">
      <root>
        <mxCell id="0" />
        <mxCell id="1" parent="0" />
        <mxCell id="DeMKpV7V8KdcXESI6n-1-1" value="Student" style="swimlane;whiteSpace=wrap;html=1;" vertex="1" parent="1">
          <mxGeometry x="160" y="80" width="200" height="270" as="geometry" />
        </mxCell>
        <mxCell id="DeMKpV7V8KdcXESI6n-1-10" style="edgeStyle=orthogonalEdgeStyle;rounded=0;orthogonalLoop=1;jettySize=auto;html=1;entryX=0.5;entryY=0;entryDx=0;entryDy=0;" edge="1" parent="DeMKpV7V8KdcXESI6n-1-1" source="DeMKpV7V8KdcXESI6n-1-3" target="DeMKpV7V8KdcXESI6n-1-4">
          <mxGeometry relative="1" as="geometry" />
        </mxCell>
        <mxCell id="DeMKpV7V8KdcXESI6n-1-3" value="" style="ellipse;html=1;shape=endState;fillColor=#000000;strokeColor=none;" vertex="1" parent="DeMKpV7V8KdcXESI6n-1-1">
          <mxGeometry x="85" y="40" width="30" height="30" as="geometry" />
        </mxCell>
        <mxCell id="DeMKpV7V8KdcXESI6n-1-4" value="submit registration form" style="rounded=1;whiteSpace=wrap;html=1;" vertex="1" parent="DeMKpV7V8KdcXESI6n-1-1">
          <mxGeometry x="50" y="90" width="100" height="40" as="geometry" />
        </mxCell>
        <mxCell id="DeMKpV7V8KdcXESI6n-1-14" value="" style="edgeStyle=orthogonalEdgeStyle;rounded=0;orthogonalLoop=1;jettySize=auto;html=1;" edge="1" parent="DeMKpV7V8KdcXESI6n-1-1" source="DeMKpV7V8KdcXESI6n-1-7" target="DeMKpV7V8KdcXESI6n-1-8">
          <mxGeometry relative="1" as="geometry" />
        </mxCell>
        <mxCell id="DeMKpV7V8KdcXESI6n-1-7" value="view notification" style="rounded=1;whiteSpace=wrap;html=1;" vertex="1" parent="DeMKpV7V8KdcXESI6n-1-1">
          <mxGeometry x="50" y="160" width="100" height="40" as="geometry" />
        </mxCell>
        <mxCell id="DeMKpV7V8KdcXESI6n-1-8" value="" style="ellipse;html=1;shape=endState;fillColor=#000000;strokeColor=default;" vertex="1" parent="DeMKpV7V8KdcXESI6n-1-1">
          <mxGeometry x="85" y="220" width="30" height="30" as="geometry" />
        </mxCell>
        <mxCell id="DeMKpV7V8KdcXESI6n-1-2" value="System" style="swimlane;whiteSpace=wrap;html=1;" vertex="1" parent="1">
          <mxGeometry x="360" y="80" width="200" height="270" as="geometry" />
        </mxCell>
        <mxCell id="DeMKpV7V8KdcXESI6n-1-12" value="" style="edgeStyle=orthogonalEdgeStyle;rounded=0;orthogonalLoop=1;jettySize=auto;html=1;" edge="1" parent="DeMKpV7V8KdcXESI6n-1-2" source="DeMKpV7V8KdcXESI6n-1-5" target="DeMKpV7V8KdcXESI6n-1-6">
          <mxGeometry relative="1" as="geometry" />
        </mxCell>
        <mxCell id="DeMKpV7V8KdcXESI6n-1-5" value="receive registration" style="rounded=1;whiteSpace=wrap;html=1;" vertex="1" parent="DeMKpV7V8KdcXESI6n-1-2">
          <mxGeometry x="50" y="90" width="100" height="40" as="geometry" />
        </mxCell>
        <mxCell id="DeMKpV7V8KdcXESI6n-1-6" value="send notification" style="rounded=1;whiteSpace=wrap;html=1;" vertex="1" parent="DeMKpV7V8KdcXESI6n-1-2">
          <mxGeometry x="50" y="160" width="100" height="40" as="geometry" />
        </mxCell>
        <mxCell id="DeMKpV7V8KdcXESI6n-1-11" style="edgeStyle=orthogonalEdgeStyle;rounded=0;orthogonalLoop=1;jettySize=auto;html=1;entryX=0;entryY=0.5;entryDx=0;entryDy=0;" edge="1" parent="1" source="DeMKpV7V8KdcXESI6n-1-4" target="DeMKpV7V8KdcXESI6n-1-5">
          <mxGeometry relative="1" as="geometry" />
        </mxCell>
        <mxCell id="DeMKpV7V8KdcXESI6n-1-13" value="" style="edgeStyle=orthogonalEdgeStyle;rounded=0;orthogonalLoop=1;jettySize=auto;html=1;" edge="1" parent="1" source="DeMKpV7V8KdcXESI6n-1-6" target="DeMKpV7V8KdcXESI6n-1-7">
          <mxGeometry relative="1" as="geometry" />
        </mxCell>
        <mxCell id="DeMKpV7V8KdcXESI6n-1-15" value="Student" style="swimlane;whiteSpace=wrap;html=1;" vertex="1" parent="1">
          <mxGeometry x="170" y="430" width="200" height="380" as="geometry" />
        </mxCell>
        <mxCell id="DeMKpV7V8KdcXESI6n-1-39" value="" style="edgeStyle=orthogonalEdgeStyle;rounded=0;orthogonalLoop=1;jettySize=auto;html=1;" edge="1" parent="DeMKpV7V8KdcXESI6n-1-15" source="DeMKpV7V8KdcXESI6n-1-17" target="DeMKpV7V8KdcXESI6n-1-18">
          <mxGeometry relative="1" as="geometry" />
        </mxCell>
        <mxCell id="DeMKpV7V8KdcXESI6n-1-17" value="" style="ellipse;html=1;shape=endState;fillColor=#000000;strokeColor=none;" vertex="1" parent="DeMKpV7V8KdcXESI6n-1-15">
          <mxGeometry x="85" y="40" width="30" height="30" as="geometry" />
        </mxCell>
        <mxCell id="DeMKpV7V8KdcXESI6n-1-18" value="enter IC number" style="rounded=1;whiteSpace=wrap;html=1;" vertex="1" parent="DeMKpV7V8KdcXESI6n-1-15">
          <mxGeometry x="50" y="90" width="100" height="40" as="geometry" />
        </mxCell>
        <mxCell id="DeMKpV7V8KdcXESI6n-1-19" value="" style="edgeStyle=orthogonalEdgeStyle;rounded=0;orthogonalLoop=1;jettySize=auto;html=1;" edge="1" parent="DeMKpV7V8KdcXESI6n-1-15" source="DeMKpV7V8KdcXESI6n-1-20" target="DeMKpV7V8KdcXESI6n-1-21">
          <mxGeometry relative="1" as="geometry" />
        </mxCell>
        <mxCell id="DeMKpV7V8KdcXESI6n-1-20" value="view notification" style="rounded=1;whiteSpace=wrap;html=1;" vertex="1" parent="DeMKpV7V8KdcXESI6n-1-15">
          <mxGeometry x="50" y="279" width="100" height="40" as="geometry" />
        </mxCell>
        <mxCell id="DeMKpV7V8KdcXESI6n-1-21" value="" style="ellipse;html=1;shape=endState;fillColor=#000000;strokeColor=default;" vertex="1" parent="DeMKpV7V8KdcXESI6n-1-15">
          <mxGeometry x="85" y="343" width="30" height="30" as="geometry" />
        </mxCell>
        <mxCell id="DeMKpV7V8KdcXESI6n-1-22" value="System" style="swimlane;whiteSpace=wrap;html=1;" vertex="1" parent="1">
          <mxGeometry x="370" y="430" width="250" height="380" as="geometry" />
        </mxCell>
        <mxCell id="DeMKpV7V8KdcXESI6n-1-32" style="edgeStyle=orthogonalEdgeStyle;rounded=0;orthogonalLoop=1;jettySize=auto;html=1;entryX=0.5;entryY=0;entryDx=0;entryDy=0;" edge="1" parent="DeMKpV7V8KdcXESI6n-1-22" source="DeMKpV7V8KdcXESI6n-1-24" target="DeMKpV7V8KdcXESI6n-1-28">
          <mxGeometry relative="1" as="geometry" />
        </mxCell>
        <mxCell id="DeMKpV7V8KdcXESI6n-1-24" value="check status" style="rounded=1;whiteSpace=wrap;html=1;" vertex="1" parent="DeMKpV7V8KdcXESI6n-1-22">
          <mxGeometry x="30" y="90" width="100" height="40" as="geometry" />
        </mxCell>
        <mxCell id="DeMKpV7V8KdcXESI6n-1-33" value="" style="edgeStyle=orthogonalEdgeStyle;rounded=0;orthogonalLoop=1;jettySize=auto;html=1;" edge="1" parent="DeMKpV7V8KdcXESI6n-1-22" source="DeMKpV7V8KdcXESI6n-1-28" target="DeMKpV7V8KdcXESI6n-1-30">
          <mxGeometry relative="1" as="geometry" />
        </mxCell>
        <mxCell id="DeMKpV7V8KdcXESI6n-1-34" value="" style="edgeStyle=orthogonalEdgeStyle;rounded=0;orthogonalLoop=1;jettySize=auto;html=1;" edge="1" parent="DeMKpV7V8KdcXESI6n-1-22" source="DeMKpV7V8KdcXESI6n-1-28" target="DeMKpV7V8KdcXESI6n-1-29">
          <mxGeometry relative="1" as="geometry" />
        </mxCell>
        <mxCell id="DeMKpV7V8KdcXESI6n-1-28" value="" style="rhombus;whiteSpace=wrap;html=1;" vertex="1" parent="DeMKpV7V8KdcXESI6n-1-22">
          <mxGeometry x="65" y="169.25" width="30" height="31.5" as="geometry" />
        </mxCell>
        <mxCell id="DeMKpV7V8KdcXESI6n-1-29" value="check status" style="rounded=1;whiteSpace=wrap;html=1;" vertex="1" parent="DeMKpV7V8KdcXESI6n-1-22">
          <mxGeometry x="140" y="165" width="100" height="40" as="geometry" />
        </mxCell>
        <mxCell id="DeMKpV7V8KdcXESI6n-1-30" value="check status" style="rounded=1;whiteSpace=wrap;html=1;" vertex="1" parent="DeMKpV7V8KdcXESI6n-1-22">
          <mxGeometry x="30" y="240" width="100" height="40" as="geometry" />
        </mxCell>
        <mxCell id="DeMKpV7V8KdcXESI6n-1-37" value="&lt;font style=&quot;font-size: 10px;&quot;&gt;[ accept ]&lt;/font&gt;" style="text;html=1;strokeColor=none;fillColor=none;align=center;verticalAlign=middle;whiteSpace=wrap;rounded=0;" vertex="1" parent="DeMKpV7V8KdcXESI6n-1-22">
          <mxGeometry x="83" y="159" width="60" height="30" as="geometry" />
        </mxCell>
        <mxCell id="DeMKpV7V8KdcXESI6n-1-26" style="edgeStyle=orthogonalEdgeStyle;rounded=0;orthogonalLoop=1;jettySize=auto;html=1;entryX=0;entryY=0.5;entryDx=0;entryDy=0;" edge="1" parent="1" source="DeMKpV7V8KdcXESI6n-1-18" target="DeMKpV7V8KdcXESI6n-1-24">
          <mxGeometry relative="1" as="geometry" />
        </mxCell>
        <mxCell id="DeMKpV7V8KdcXESI6n-1-35" style="edgeStyle=orthogonalEdgeStyle;rounded=0;orthogonalLoop=1;jettySize=auto;html=1;entryX=1;entryY=0.5;entryDx=0;entryDy=0;" edge="1" parent="1" source="DeMKpV7V8KdcXESI6n-1-29" target="DeMKpV7V8KdcXESI6n-1-20">
          <mxGeometry relative="1" as="geometry">
            <Array as="points">
              <mxPoint x="560" y="729" />
            </Array>
          </mxGeometry>
        </mxCell>
        <mxCell id="DeMKpV7V8KdcXESI6n-1-36" style="edgeStyle=orthogonalEdgeStyle;rounded=0;orthogonalLoop=1;jettySize=auto;html=1;entryX=1;entryY=0.5;entryDx=0;entryDy=0;" edge="1" parent="1" source="DeMKpV7V8KdcXESI6n-1-30" target="DeMKpV7V8KdcXESI6n-1-20">
          <mxGeometry relative="1" as="geometry">
            <Array as="points">
              <mxPoint x="450" y="729" />
            </Array>
          </mxGeometry>
        </mxCell>
        <mxCell id="DeMKpV7V8KdcXESI6n-1-40" value="Admin" style="swimlane;whiteSpace=wrap;html=1;" vertex="1" parent="1">
          <mxGeometry x="160" y="890" width="230" height="380" as="geometry" />
        </mxCell>
        <mxCell id="DeMKpV7V8KdcXESI6n-1-66" style="edgeStyle=orthogonalEdgeStyle;rounded=0;orthogonalLoop=1;jettySize=auto;html=1;entryX=0.5;entryY=0;entryDx=0;entryDy=0;" edge="1" parent="DeMKpV7V8KdcXESI6n-1-40" source="DeMKpV7V8KdcXESI6n-1-62" target="DeMKpV7V8KdcXESI6n-1-63">
          <mxGeometry relative="1" as="geometry" />
        </mxCell>
        <mxCell id="DeMKpV7V8KdcXESI6n-1-62" value="For each registration" style="text;html=1;strokeColor=none;fillColor=none;align=center;verticalAlign=middle;whiteSpace=wrap;rounded=0;" vertex="1" parent="DeMKpV7V8KdcXESI6n-1-40">
          <mxGeometry x="10" y="80" width="140" height="30" as="geometry" />
        </mxCell>
        <mxCell id="DeMKpV7V8KdcXESI6n-1-67" value="" style="edgeStyle=orthogonalEdgeStyle;rounded=0;orthogonalLoop=1;jettySize=auto;html=1;" edge="1" parent="DeMKpV7V8KdcXESI6n-1-40" source="DeMKpV7V8KdcXESI6n-1-63" target="DeMKpV7V8KdcXESI6n-1-64">
          <mxGeometry relative="1" as="geometry" />
        </mxCell>
        <mxCell id="DeMKpV7V8KdcXESI6n-1-63" value="" style="rounded=0;whiteSpace=wrap;html=1;fillColor=#000000;" vertex="1" parent="DeMKpV7V8KdcXESI6n-1-40">
          <mxGeometry x="38.75" y="123" width="82.5" height="10" as="geometry" />
        </mxCell>
        <mxCell id="DeMKpV7V8KdcXESI6n-1-69" value="" style="edgeStyle=orthogonalEdgeStyle;rounded=0;orthogonalLoop=1;jettySize=auto;html=1;" edge="1" parent="DeMKpV7V8KdcXESI6n-1-40" source="DeMKpV7V8KdcXESI6n-1-64" target="DeMKpV7V8KdcXESI6n-1-68">
          <mxGeometry relative="1" as="geometry" />
        </mxCell>
        <mxCell id="DeMKpV7V8KdcXESI6n-1-64" value="view registration" style="rounded=1;whiteSpace=wrap;html=1;" vertex="1" parent="DeMKpV7V8KdcXESI6n-1-40">
          <mxGeometry x="30" y="160" width="100" height="40" as="geometry" />
        </mxCell>
        <mxCell id="DeMKpV7V8KdcXESI6n-1-72" value="" style="edgeStyle=orthogonalEdgeStyle;rounded=0;orthogonalLoop=1;jettySize=auto;html=1;" edge="1" parent="DeMKpV7V8KdcXESI6n-1-40" source="DeMKpV7V8KdcXESI6n-1-68" target="DeMKpV7V8KdcXESI6n-1-71">
          <mxGeometry relative="1" as="geometry" />
        </mxCell>
        <mxCell id="DeMKpV7V8KdcXESI6n-1-73" value="No" style="edgeLabel;html=1;align=center;verticalAlign=middle;resizable=0;points=[];" vertex="1" connectable="0" parent="DeMKpV7V8KdcXESI6n-1-72">
          <mxGeometry x="0.0788" relative="1" as="geometry">
            <mxPoint y="-1" as="offset" />
          </mxGeometry>
        </mxCell>
        <mxCell id="DeMKpV7V8KdcXESI6n-1-74" value="" style="edgeStyle=orthogonalEdgeStyle;rounded=0;orthogonalLoop=1;jettySize=auto;html=1;" edge="1" parent="DeMKpV7V8KdcXESI6n-1-40" source="DeMKpV7V8KdcXESI6n-1-68" target="DeMKpV7V8KdcXESI6n-1-70">
          <mxGeometry relative="1" as="geometry" />
        </mxCell>
        <mxCell id="DeMKpV7V8KdcXESI6n-1-75" value="Yes" style="edgeLabel;html=1;align=center;verticalAlign=middle;resizable=0;points=[];" vertex="1" connectable="0" parent="DeMKpV7V8KdcXESI6n-1-74">
          <mxGeometry x="-0.2104" relative="1" as="geometry">
            <mxPoint as="offset" />
          </mxGeometry>
        </mxCell>
        <mxCell id="DeMKpV7V8KdcXESI6n-1-68" value="" style="rhombus;whiteSpace=wrap;html=1;" vertex="1" parent="DeMKpV7V8KdcXESI6n-1-40">
          <mxGeometry x="65" y="230" width="30" height="30" as="geometry" />
        </mxCell>
        <mxCell id="DeMKpV7V8KdcXESI6n-1-70" value="accept registration" style="rounded=1;whiteSpace=wrap;html=1;" vertex="1" parent="DeMKpV7V8KdcXESI6n-1-40">
          <mxGeometry x="140" y="227.87" width="78.75" height="34.25" as="geometry" />
        </mxCell>
        <mxCell id="DeMKpV7V8KdcXESI6n-1-71" value="reject registration" style="rounded=1;whiteSpace=wrap;html=1;" vertex="1" parent="DeMKpV7V8KdcXESI6n-1-40">
          <mxGeometry x="30" y="290" width="100" height="40" as="geometry" />
        </mxCell>
        <mxCell id="DeMKpV7V8KdcXESI6n-1-47" value="System" style="swimlane;whiteSpace=wrap;html=1;" vertex="1" parent="1">
          <mxGeometry x="390" y="890" width="270" height="380" as="geometry" />
        </mxCell>
        <mxCell id="DeMKpV7V8KdcXESI6n-1-53" value="retrieve submitted registration" style="rounded=1;whiteSpace=wrap;html=1;" vertex="1" parent="DeMKpV7V8KdcXESI6n-1-47">
          <mxGeometry x="99.25" y="83" width="117.5" height="40" as="geometry" />
        </mxCell>
        <mxCell id="DeMKpV7V8KdcXESI6n-1-60" value="" style="edgeStyle=orthogonalEdgeStyle;rounded=0;orthogonalLoop=1;jettySize=auto;html=1;" edge="1" parent="DeMKpV7V8KdcXESI6n-1-47" source="DeMKpV7V8KdcXESI6n-1-42" target="DeMKpV7V8KdcXESI6n-1-53">
          <mxGeometry relative="1" as="geometry" />
        </mxCell>
        <mxCell id="DeMKpV7V8KdcXESI6n-1-42" value="" style="ellipse;html=1;shape=endState;fillColor=#000000;strokeColor=none;" vertex="1" parent="DeMKpV7V8KdcXESI6n-1-47">
          <mxGeometry x="143" y="33" width="30" height="30" as="geometry" />
        </mxCell>
        <mxCell id="DeMKpV7V8KdcXESI6n-1-61" value="" style="endArrow=none;html=1;rounded=0;entryX=0;entryY=0.5;entryDx=0;entryDy=0;" edge="1" parent="DeMKpV7V8KdcXESI6n-1-47" target="DeMKpV7V8KdcXESI6n-1-53">
          <mxGeometry width="50" height="50" relative="1" as="geometry">
            <mxPoint x="-60" y="103" as="sourcePoint" />
            <mxPoint x="70" y="103" as="targetPoint" />
          </mxGeometry>
        </mxCell>
        <mxCell id="DeMKpV7V8KdcXESI6n-1-81" style="edgeStyle=orthogonalEdgeStyle;rounded=0;orthogonalLoop=1;jettySize=auto;html=1;entryX=0.5;entryY=1;entryDx=0;entryDy=0;" edge="1" parent="DeMKpV7V8KdcXESI6n-1-47" source="DeMKpV7V8KdcXESI6n-1-76" target="DeMKpV7V8KdcXESI6n-1-77">
          <mxGeometry relative="1" as="geometry" />
        </mxCell>
        <mxCell id="DeMKpV7V8KdcXESI6n-1-76" value="update status" style="rounded=1;whiteSpace=wrap;html=1;" vertex="1" parent="DeMKpV7V8KdcXESI6n-1-47">
          <mxGeometry x="64.25" y="260" width="85.75" height="40" as="geometry" />
        </mxCell>
        <mxCell id="DeMKpV7V8KdcXESI6n-1-46" value="" style="ellipse;html=1;shape=endState;fillColor=#000000;strokeColor=default;" vertex="1" parent="DeMKpV7V8KdcXESI6n-1-47">
          <mxGeometry x="220" y="265" width="30" height="30" as="geometry" />
        </mxCell>
        <mxCell id="DeMKpV7V8KdcXESI6n-1-82" style="edgeStyle=orthogonalEdgeStyle;rounded=0;orthogonalLoop=1;jettySize=auto;html=1;entryX=0;entryY=0.5;entryDx=0;entryDy=0;" edge="1" parent="DeMKpV7V8KdcXESI6n-1-47" source="DeMKpV7V8KdcXESI6n-1-77" target="DeMKpV7V8KdcXESI6n-1-46">
          <mxGeometry relative="1" as="geometry" />
        </mxCell>
        <mxCell id="DeMKpV7V8KdcXESI6n-1-77" value="" style="rounded=0;whiteSpace=wrap;html=1;fillColor=#000000;rotation=90;" vertex="1" parent="DeMKpV7V8KdcXESI6n-1-47">
          <mxGeometry x="150" y="275" width="82.5" height="10" as="geometry" />
        </mxCell>
        <mxCell id="DeMKpV7V8KdcXESI6n-1-78" style="edgeStyle=orthogonalEdgeStyle;rounded=0;orthogonalLoop=1;jettySize=auto;html=1;entryX=0;entryY=0.5;entryDx=0;entryDy=0;" edge="1" parent="1" source="DeMKpV7V8KdcXESI6n-1-71" target="DeMKpV7V8KdcXESI6n-1-76">
          <mxGeometry relative="1" as="geometry">
            <Array as="points">
              <mxPoint x="420" y="1200" />
              <mxPoint x="420" y="1170" />
            </Array>
          </mxGeometry>
        </mxCell>
        <mxCell id="DeMKpV7V8KdcXESI6n-1-80" style="edgeStyle=orthogonalEdgeStyle;rounded=0;orthogonalLoop=1;jettySize=auto;html=1;entryX=0;entryY=0.5;entryDx=0;entryDy=0;" edge="1" parent="1" source="DeMKpV7V8KdcXESI6n-1-70" target="DeMKpV7V8KdcXESI6n-1-76">
          <mxGeometry relative="1" as="geometry">
            <Array as="points">
              <mxPoint x="420" y="1135" />
              <mxPoint x="420" y="1170" />
            </Array>
          </mxGeometry>
        </mxCell>
        <mxCell id="DeMKpV7V8KdcXESI6n-1-83" value="Admin" style="swimlane;whiteSpace=wrap;html=1;" vertex="1" parent="1">
          <mxGeometry x="160" y="1340" width="200" height="270" as="geometry" />
        </mxCell>
        <mxCell id="DeMKpV7V8KdcXESI6n-1-84" style="edgeStyle=orthogonalEdgeStyle;rounded=0;orthogonalLoop=1;jettySize=auto;html=1;entryX=0.5;entryY=0;entryDx=0;entryDy=0;" edge="1" parent="DeMKpV7V8KdcXESI6n-1-83" source="DeMKpV7V8KdcXESI6n-1-85" target="DeMKpV7V8KdcXESI6n-1-86">
          <mxGeometry relative="1" as="geometry" />
        </mxCell>
        <mxCell id="DeMKpV7V8KdcXESI6n-1-85" value="" style="ellipse;html=1;shape=endState;fillColor=#000000;strokeColor=none;" vertex="1" parent="DeMKpV7V8KdcXESI6n-1-83">
          <mxGeometry x="85" y="40" width="30" height="30" as="geometry" />
        </mxCell>
        <mxCell id="DeMKpV7V8KdcXESI6n-1-86" value="request registration report" style="rounded=1;whiteSpace=wrap;html=1;" vertex="1" parent="DeMKpV7V8KdcXESI6n-1-83">
          <mxGeometry x="50" y="90" width="100" height="40" as="geometry" />
        </mxCell>
        <mxCell id="DeMKpV7V8KdcXESI6n-1-87" value="" style="edgeStyle=orthogonalEdgeStyle;rounded=0;orthogonalLoop=1;jettySize=auto;html=1;" edge="1" parent="DeMKpV7V8KdcXESI6n-1-83" source="DeMKpV7V8KdcXESI6n-1-88" target="DeMKpV7V8KdcXESI6n-1-89">
          <mxGeometry relative="1" as="geometry" />
        </mxCell>
        <mxCell id="DeMKpV7V8KdcXESI6n-1-88" value="view report" style="rounded=1;whiteSpace=wrap;html=1;" vertex="1" parent="DeMKpV7V8KdcXESI6n-1-83">
          <mxGeometry x="50" y="160" width="100" height="40" as="geometry" />
        </mxCell>
        <mxCell id="DeMKpV7V8KdcXESI6n-1-89" value="" style="ellipse;html=1;shape=endState;fillColor=#000000;strokeColor=default;" vertex="1" parent="DeMKpV7V8KdcXESI6n-1-83">
          <mxGeometry x="85" y="220" width="30" height="30" as="geometry" />
        </mxCell>
        <mxCell id="DeMKpV7V8KdcXESI6n-1-90" value="System" style="swimlane;whiteSpace=wrap;html=1;" vertex="1" parent="1">
          <mxGeometry x="360" y="1340" width="200" height="270" as="geometry" />
        </mxCell>
        <mxCell id="DeMKpV7V8KdcXESI6n-1-91" value="" style="edgeStyle=orthogonalEdgeStyle;rounded=0;orthogonalLoop=1;jettySize=auto;html=1;" edge="1" parent="DeMKpV7V8KdcXESI6n-1-90" source="DeMKpV7V8KdcXESI6n-1-92" target="DeMKpV7V8KdcXESI6n-1-93">
          <mxGeometry relative="1" as="geometry" />
        </mxCell>
        <mxCell id="DeMKpV7V8KdcXESI6n-1-92" value="receive request" style="rounded=1;whiteSpace=wrap;html=1;" vertex="1" parent="DeMKpV7V8KdcXESI6n-1-90">
          <mxGeometry x="50" y="90" width="100" height="40" as="geometry" />
        </mxCell>
        <mxCell id="DeMKpV7V8KdcXESI6n-1-93" value="generate report" style="rounded=1;whiteSpace=wrap;html=1;" vertex="1" parent="DeMKpV7V8KdcXESI6n-1-90">
          <mxGeometry x="50" y="160" width="100" height="40" as="geometry" />
        </mxCell>
        <mxCell id="DeMKpV7V8KdcXESI6n-1-94" style="edgeStyle=orthogonalEdgeStyle;rounded=0;orthogonalLoop=1;jettySize=auto;html=1;entryX=0;entryY=0.5;entryDx=0;entryDy=0;" edge="1" parent="1" source="DeMKpV7V8KdcXESI6n-1-86" target="DeMKpV7V8KdcXESI6n-1-92">
          <mxGeometry relative="1" as="geometry" />
        </mxCell>
        <mxCell id="DeMKpV7V8KdcXESI6n-1-95" value="" style="edgeStyle=orthogonalEdgeStyle;rounded=0;orthogonalLoop=1;jettySize=auto;html=1;" edge="1" parent="1" source="DeMKpV7V8KdcXESI6n-1-93" target="DeMKpV7V8KdcXESI6n-1-88">
          <mxGeometry relative="1" as="geometry" />
        </mxCell>
        <mxCell id="DeMKpV7V8KdcXESI6n-1-96" value="" style="swimlane;startSize=0;" vertex="1" parent="1">
          <mxGeometry x="1080" y="1220" width="530" height="460" as="geometry" />
        </mxCell>
        <mxCell id="DeMKpV7V8KdcXESI6n-1-99" value="Course Registration System" style="text;html=1;strokeColor=none;fillColor=none;align=center;verticalAlign=middle;whiteSpace=wrap;rounded=0;" vertex="1" parent="DeMKpV7V8KdcXESI6n-1-96">
          <mxGeometry x="-5" y="10" width="190" height="30" as="geometry" />
        </mxCell>
        <mxCell id="DeMKpV7V8KdcXESI6n-1-100" value="Register course" style="ellipse;whiteSpace=wrap;html=1;" vertex="1" parent="DeMKpV7V8KdcXESI6n-1-96">
          <mxGeometry x="110" y="54" width="150" height="50" as="geometry" />
        </mxCell>
        <mxCell id="DeMKpV7V8KdcXESI6n-1-101" value="Check status" style="ellipse;whiteSpace=wrap;html=1;" vertex="1" parent="DeMKpV7V8KdcXESI6n-1-96">
          <mxGeometry x="80" y="134" width="150" height="50" as="geometry" />
        </mxCell>
        <mxCell id="DeMKpV7V8KdcXESI6n-1-102" value="view registration detail" style="ellipse;whiteSpace=wrap;html=1;" vertex="1" parent="DeMKpV7V8KdcXESI6n-1-96">
          <mxGeometry x="90" y="214" width="150" height="50" as="geometry" />
        </mxCell>
        <mxCell id="DeMKpV7V8KdcXESI6n-1-103" value="Update status" style="ellipse;whiteSpace=wrap;html=1;" vertex="1" parent="DeMKpV7V8KdcXESI6n-1-96">
          <mxGeometry x="110" y="294" width="150" height="50" as="geometry" />
        </mxCell>
        <mxCell id="DeMKpV7V8KdcXESI6n-1-104" value="generate registration report" style="ellipse;whiteSpace=wrap;html=1;" vertex="1" parent="DeMKpV7V8KdcXESI6n-1-96">
          <mxGeometry x="80" y="374" width="150" height="50" as="geometry" />
        </mxCell>
        <mxCell id="DeMKpV7V8KdcXESI6n-1-105" value="print report" style="ellipse;whiteSpace=wrap;html=1;" vertex="1" parent="DeMKpV7V8KdcXESI6n-1-96">
          <mxGeometry x="350" y="294" width="150" height="50" as="geometry" />
        </mxCell>
        <mxCell id="DeMKpV7V8KdcXESI6n-1-107" value="send notification" style="ellipse;whiteSpace=wrap;html=1;" vertex="1" parent="DeMKpV7V8KdcXESI6n-1-96">
          <mxGeometry x="350" y="70" width="150" height="50" as="geometry" />
        </mxCell>
        <mxCell id="DeMKpV7V8KdcXESI6n-1-108" value="generate letter" style="ellipse;whiteSpace=wrap;html=1;" vertex="1" parent="DeMKpV7V8KdcXESI6n-1-96">
          <mxGeometry x="350" y="140" width="150" height="50" as="geometry" />
        </mxCell>
        <mxCell id="DeMKpV7V8KdcXESI6n-1-117" value="" style="endArrow=classic;html=1;rounded=0;entryX=0.989;entryY=0.353;entryDx=0;entryDy=0;entryPerimeter=0;exitX=0.05;exitY=0.731;exitDx=0;exitDy=0;exitPerimeter=0;dashed=1;" edge="1" parent="DeMKpV7V8KdcXESI6n-1-96" source="DeMKpV7V8KdcXESI6n-1-105" target="DeMKpV7V8KdcXESI6n-1-104">
          <mxGeometry width="50" height="50" relative="1" as="geometry">
            <mxPoint x="360" y="330" as="sourcePoint" />
            <mxPoint x="410" y="280" as="targetPoint" />
          </mxGeometry>
        </mxCell>
        <mxCell id="DeMKpV7V8KdcXESI6n-1-118" value="&amp;lt;&amp;lt;extend&amp;gt;&amp;gt;" style="edgeLabel;html=1;align=center;verticalAlign=middle;resizable=0;points=[];" vertex="1" connectable="0" parent="DeMKpV7V8KdcXESI6n-1-117">
          <mxGeometry x="-0.0223" y="-3" relative="1" as="geometry">
            <mxPoint as="offset" />
          </mxGeometry>
        </mxCell>
        <mxCell id="DeMKpV7V8KdcXESI6n-1-119" value="" style="endArrow=classic;html=1;rounded=0;entryX=0;entryY=0.5;entryDx=0;entryDy=0;dashed=1;" edge="1" parent="DeMKpV7V8KdcXESI6n-1-96" target="DeMKpV7V8KdcXESI6n-1-107">
          <mxGeometry width="50" height="50" relative="1" as="geometry">
            <mxPoint x="260" y="80" as="sourcePoint" />
            <mxPoint x="310" y="30" as="targetPoint" />
          </mxGeometry>
        </mxCell>
        <mxCell id="DeMKpV7V8KdcXESI6n-1-122" value="&amp;lt;&amp;lt;include&amp;gt;&amp;gt;" style="edgeLabel;html=1;align=center;verticalAlign=middle;resizable=0;points=[];" vertex="1" connectable="0" parent="DeMKpV7V8KdcXESI6n-1-119">
          <mxGeometry x="-0.2666" relative="1" as="geometry">
            <mxPoint x="6" y="1" as="offset" />
          </mxGeometry>
        </mxCell>
        <mxCell id="DeMKpV7V8KdcXESI6n-1-120" value="" style="endArrow=classic;html=1;rounded=0;entryX=0;entryY=0.5;entryDx=0;entryDy=0;dashed=1;" edge="1" parent="DeMKpV7V8KdcXESI6n-1-96" target="DeMKpV7V8KdcXESI6n-1-108">
          <mxGeometry width="50" height="50" relative="1" as="geometry">
            <mxPoint x="230" y="160" as="sourcePoint" />
            <mxPoint x="280" y="110" as="targetPoint" />
          </mxGeometry>
        </mxCell>
        <mxCell id="DeMKpV7V8KdcXESI6n-1-121" value="&amp;lt;&amp;lt;include&amp;gt;&amp;gt;" style="edgeLabel;html=1;align=center;verticalAlign=middle;resizable=0;points=[];" vertex="1" connectable="0" parent="DeMKpV7V8KdcXESI6n-1-120">
          <mxGeometry x="-0.1522" relative="1" as="geometry">
            <mxPoint as="offset" />
          </mxGeometry>
        </mxCell>
        <mxCell id="DeMKpV7V8KdcXESI6n-1-97" value="&lt;font style=&quot;font-size: 16px;&quot;&gt;Student&lt;/font&gt;" style="shape=umlActor;verticalLabelPosition=bottom;verticalAlign=top;html=1;outlineConnect=0;" vertex="1" parent="1">
          <mxGeometry x="960" y="1300" width="60" height="110" as="geometry" />
        </mxCell>
        <mxCell id="DeMKpV7V8KdcXESI6n-1-98" value="&lt;font style=&quot;font-size: 16px;&quot;&gt;Admin&lt;/font&gt;" style="shape=umlActor;verticalLabelPosition=bottom;verticalAlign=top;html=1;outlineConnect=0;" vertex="1" parent="1">
          <mxGeometry x="960" y="1480" width="60" height="110" as="geometry" />
        </mxCell>
        <mxCell id="DeMKpV7V8KdcXESI6n-1-106" value="" style="endArrow=none;html=1;rounded=0;entryX=0;entryY=0.5;entryDx=0;entryDy=0;" edge="1" parent="1" target="DeMKpV7V8KdcXESI6n-1-100">
          <mxGeometry width="50" height="50" relative="1" as="geometry">
            <mxPoint x="1040" y="1350" as="sourcePoint" />
            <mxPoint x="1090" y="1290" as="targetPoint" />
          </mxGeometry>
        </mxCell>
        <mxCell id="DeMKpV7V8KdcXESI6n-1-111" value="" style="endArrow=none;html=1;rounded=0;entryX=0;entryY=0.5;entryDx=0;entryDy=0;" edge="1" parent="1" target="DeMKpV7V8KdcXESI6n-1-101">
          <mxGeometry width="50" height="50" relative="1" as="geometry">
            <mxPoint x="1040" y="1360" as="sourcePoint" />
            <mxPoint x="1090" y="1310" as="targetPoint" />
          </mxGeometry>
        </mxCell>
        <mxCell id="DeMKpV7V8KdcXESI6n-1-112" value="" style="endArrow=none;html=1;rounded=0;entryX=0;entryY=0.5;entryDx=0;entryDy=0;" edge="1" parent="1" target="DeMKpV7V8KdcXESI6n-1-102">
          <mxGeometry width="50" height="50" relative="1" as="geometry">
            <mxPoint x="1040" y="1530" as="sourcePoint" />
            <mxPoint x="1090" y="1480" as="targetPoint" />
          </mxGeometry>
        </mxCell>
        <mxCell id="DeMKpV7V8KdcXESI6n-1-113" value="" style="endArrow=none;html=1;rounded=0;entryX=0;entryY=0.5;entryDx=0;entryDy=0;" edge="1" parent="1" target="DeMKpV7V8KdcXESI6n-1-103">
          <mxGeometry width="50" height="50" relative="1" as="geometry">
            <mxPoint x="1040" y="1540" as="sourcePoint" />
            <mxPoint x="1090" y="1490" as="targetPoint" />
          </mxGeometry>
        </mxCell>
        <mxCell id="DeMKpV7V8KdcXESI6n-1-116" value="" style="endArrow=none;html=1;rounded=0;entryX=0.446;entryY=-0.022;entryDx=0;entryDy=0;entryPerimeter=0;" edge="1" parent="1" target="DeMKpV7V8KdcXESI6n-1-104">
          <mxGeometry width="50" height="50" relative="1" as="geometry">
            <mxPoint x="1040" y="1550" as="sourcePoint" />
            <mxPoint x="1220" y="1590" as="targetPoint" />
          </mxGeometry>
        </mxCell>
      </root>
    </mxGraphModel>
  </diagram>
</mxfile>
